<svg width="858" height="858" viewBox="0 0 858 858" fill="none" xmlns="http://www.w3.org/2000/svg">
<g clip-path="url(#clip0_12_15)">
<rect x="29" y="29" width="800" height="800" fill="white"/>
<path d="M829 648.6C817.357 653.004 804.504 652.994 792.867 648.573C781.231 644.151 771.615 635.624 765.833 624.6L650.833 465.567L634.167 443.333L500.733 624.8C495.299 635.362 486.205 643.583 475.15 647.926C464.095 652.27 451.837 652.438 440.667 648.4L612.6 417.733L452.667 209.367C464.166 205.222 476.743 205.168 488.279 209.211C499.814 213.255 509.604 221.15 516 231.567L635.2 392.567L755.067 232.233C760.542 221.86 769.639 213.86 780.628 209.754C791.616 205.649 803.73 205.725 814.667 209.967L752.6 292.333L668.533 401.767C666.199 403.849 664.33 406.402 663.051 409.257C661.772 412.112 661.111 415.205 661.111 418.333C661.111 421.462 661.772 424.555 663.051 427.41C664.33 430.265 666.199 432.817 668.533 434.9L828.667 648.633L829 648.6ZM29.0666 414.867L43.0666 345.7C81.5332 208.933 238.333 152.033 346.2 236.7C409.367 286.333 425.133 356.6 422.033 435.8H66.1999C60.4332 577.233 162.5 662.633 293 619C314.155 611.385 333.091 598.641 348.112 581.91C363.132 565.18 373.768 544.984 379.067 523.133C385.967 500.933 397.333 497.133 418.2 503.533C414.723 530.613 405.15 556.551 390.202 579.397C375.254 602.243 355.32 621.403 331.9 635.433C293.214 656.594 248.827 664.981 205.087 659.396C161.347 653.81 120.493 634.537 88.3666 604.333C56.6009 568.58 37.4025 523.416 33.6999 475.733C33.6999 467.9 31.0332 460.567 29.2332 453.533C29.071 440.656 28.9932 427.778 28.9999 414.9L29.0666 414.867ZM66.6332 405.333H388.433C386.433 302.8 321.733 230.067 235.433 229.4C139.367 228.067 70.6332 299.2 66.3999 404.867L66.6332 405.333Z" fill="black"/>
</g>
<rect x="14.5" y="14.5" width="829" height="829" stroke="white" stroke-width="29"/>
<defs>
<clipPath id="clip0_12_15">
<rect x="29" y="29" width="800" height="800" fill="white"/>
</clipPath>
</defs>
</svg>
