<?xml version="1.0" encoding="iso-8859-1"?>
<!-- Uploaded to: SVG Repo, www.svgrepo.com, Generator: SVG Repo Mixer Tools -->
<!DOCTYPE svg PUBLIC "-//W3C//DTD SVG 1.1//EN" "http://www.w3.org/Graphics/SVG/1.1/DTD/svg11.dtd">
<svg fill="#000000" version="1.1" id="Capa_1" xmlns="http://www.w3.org/2000/svg" xmlns:xlink="http://www.w3.org/1999/xlink" 
	 width="800px" height="800px" viewBox="0 0 27.551 27.552"
	 xml:space="preserve">
<g>
	<g>
		<polygon points="23.276,0 17.026,0 13.776,4.333 10.526,0 4.276,0 13.776,12.666 		"/>
		<path d="M20.842,20.9l-0.403-0.106c-0.173-0.046-0.241-0.211-0.151-0.366l0.625-1.094c0.09-0.155,0.018-0.282-0.162-0.282
			l-0.418,0.001c-0.178,0-0.287-0.143-0.24-0.312l0.32-1.219c0.047-0.174-0.058-0.275-0.229-0.23l-0.401,0.107
			c-0.172,0.047-0.314-0.062-0.314-0.24l-0.004-1.26c0-0.179-0.127-0.252-0.28-0.162l-0.363,0.209
			c-0.153,0.088-0.317,0.021-0.364-0.15l-0.33-1.217c-0.047-0.172-0.188-0.209-0.313-0.082l-0.296,0.295
			c-0.127,0.125-0.303,0.104-0.393-0.051l-0.636-1.089c-0.089-0.154-0.233-0.154-0.323,0l-0.211,0.362
			c-0.088,0.154-0.264,0.179-0.391,0.054l-0.896-0.89c-0.125-0.126-0.268-0.088-0.312,0.084l-0.109,0.403
			c-0.046,0.172-0.209,0.24-0.364,0.152l-1.094-0.628c-0.156-0.089-0.282-0.015-0.282,0.164v0.418c0,0.178-0.142,0.287-0.314,0.241
			l-1.217-0.323c-0.173-0.045-0.276,0.058-0.23,0.23l0.107,0.402c0.046,0.172-0.062,0.313-0.238,0.314l-1.262,0.004
			c-0.179,0-0.251,0.127-0.163,0.282l0.209,0.36c0.09,0.156,0.021,0.32-0.151,0.367l-1.215,0.33
			c-0.173,0.047-0.211,0.188-0.085,0.314l0.296,0.295c0.127,0.126,0.104,0.303-0.052,0.393l-1.088,0.633
			c-0.154,0.09-0.154,0.236,0,0.326l0.362,0.209c0.154,0.09,0.178,0.267,0.053,0.393l-0.889,0.895
			c-0.126,0.125-0.088,0.268,0.083,0.313l0.404,0.108c0.172,0.045,0.241,0.211,0.153,0.365L6.64,21.316
			c-0.089,0.154-0.017,0.281,0.163,0.281h0.418c0.18,0,0.288,0.143,0.242,0.312l-0.322,1.22c-0.046,0.172,0.058,0.274,0.229,0.229
			l0.403-0.108c0.171-0.046,0.314,0.063,0.314,0.239l0.004,1.262c0,0.18,0.127,0.251,0.281,0.163l0.363-0.21
			c0.153-0.09,0.318-0.021,0.366,0.152l0.328,1.215c0.048,0.172,0.188,0.211,0.314,0.084l0.297-0.295
			c0.125-0.127,0.302-0.104,0.391,0.051l0.634,1.09c0.089,0.154,0.235,0.154,0.324,0l0.21-0.361
			c0.089-0.154,0.265-0.178,0.393-0.052l0.894,0.89c0.126,0.125,0.268,0.086,0.313-0.086l0.041-0.146
			c-0.026-0.399,0.536-0.399,1.029-0.069l0.497,0.285c0.156,0.088,0.281,0.016,0.281-0.164v-0.417c0-0.179,0.142-0.286,0.313-0.241
			l1.218,0.322c0.174,0.046,0.274-0.059,0.23-0.229L16.7,26.331c-0.044-0.173,0.062-0.313,0.24-0.313l1.263-0.005
			c0.179-0.001,0.25-0.127,0.162-0.282l-0.21-0.361c-0.089-0.154-0.021-0.318,0.148-0.365l1.22-0.331
			c0.172-0.046,0.21-0.188,0.084-0.313l-0.296-0.295c-0.127-0.127-0.104-0.304,0.052-0.394l1.088-0.634
			c0.154-0.09,0.154-0.236,0-0.325l-0.362-0.209c-0.152-0.091-0.176-0.267-0.051-0.394l0.887-0.894
			C21.051,21.089,21.012,20.947,20.842,20.9z"/>
	</g>
</g>
</svg>